<?xml version="1.0" standalone="no"?>
<!DOCTYPE svg PUBLIC "-//W3C//DTD SVG 20010904//EN"
 "http://www.w3.org/TR/2001/REC-SVG-20010904/DTD/svg10.dtd">
<svg version="1.0" xmlns="http://www.w3.org/2000/svg"
 width="64.000000pt" height="64.000000pt" viewBox="0 0 64.000000 64.000000"
 preserveAspectRatio="xMidYMid meet">
<metadata>
Created by potrace 1.16, written by Peter Selinger 2001-2019
</metadata>
<g transform="translate(0.000000,64.000000) scale(0.100000,-0.100000)"
fill="#000000" stroke="none">
<path d="M213 620 c-65 -39 -67 -50 -73 -310 -4 -156 -10 -242 -18 -257 -21
-38 -6 -53 55 -53 52 0 54 1 69 35 7 19 14 42 14 52 0 15 10 18 68 18 115 1
182 61 182 164 0 59 -11 87 -47 117 l-25 21 21 34 c38 63 17 137 -51 179 -45
27 -150 28 -195 0z m172 -16 c66 -31 87 -105 46 -163 -12 -16 -21 -31 -21 -34
0 -2 18 -23 40 -45 35 -34 40 -46 40 -84 0 -54 -29 -103 -79 -131 -34 -21
-110 -28 -147 -14 -19 7 -22 3 -28 -39 -8 -60 -20 -74 -63 -74 -32 0 -35 2
-28 23 5 12 11 126 14 252 7 252 13 279 69 309 36 20 116 20 157 0z"/>
<path d="M277 578 c-30 -23 -37 -68 -37 -224 0 -151 1 -156 25 -179 28 -29 45
-31 84 -11 42 22 63 62 63 118 0 66 -25 102 -75 106 -41 4 -53 32 -14 32 33 0
48 13 56 51 19 84 -44 150 -102 107z m67 -24 c19 -19 21 -87 4 -102 -7 -5 -24
-12 -37 -14 -55 -7 -48 -68 7 -68 70 0 98 -98 46 -160 -20 -23 -34 -30 -53
-28 -45 5 -52 37 -48 200 3 126 6 150 22 168 22 24 38 25 59 4z"/>
</g>
</svg>
